<?xml version="1.0" encoding="iso-8859-1"?>
<!-- Generator: Adobe Illustrator 19.0.0, SVG Export Plug-In . SVG Version: 6.00 Build 0)  -->
<svg version="1.1" id="Capa_1" xmlns="http://www.w3.org/2000/svg" xmlns:xlink="http://www.w3.org/1999/xlink" x="0px" y="0px"
	 viewBox="0 0 512 512" style="enable-background:new 0 0 512 512;" xml:space="preserve">
<g>
	<g>
		<path d="M280.101,241h-48.2c-18.306,0-33.199-14.894-33.199-33.199c0-18.307,14.893-33.2,33.199-33.2h96.4c8.284,0,15-6.716,15-15
			s-6.716-15-15-15H271v-33.2c0-8.284-6.716-15-15-15s-15,6.716-15,15v33.2h-9.1c-34.848,0-63.199,28.352-63.199,63.2
			c0,34.849,28.351,63.199,63.199,63.199h48.2c18.307,0,33.2,14.894,33.2,33.201c0,18.306-14.894,33.199-33.2,33.199h-96.399
			c-8.284,0-15,6.716-15,15s6.716,15,15,15H241v33.2c0,8.284,6.716,15,15,15s15-6.716,15-15v-33.2h9.101
			c34.849,0,63.2-28.352,63.2-63.199C343.301,269.352,314.949,241,280.101,241z"/>
	</g>
</g>
<g>
	<g>
		<path d="M172.59,81.529l-24.1-41.742c-4.142-7.174-13.316-9.634-20.49-5.49c-7.174,4.143-9.632,13.316-5.49,20.49l24.1,41.742
			c2.778,4.813,7.82,7.503,13.004,7.503c2.544,0,5.124-0.648,7.486-2.013C174.274,97.876,176.732,88.703,172.59,81.529z"/>
	</g>
</g>
<g>
	<g>
		<path d="M389.491,457.213l-24.1-41.744c-4.142-7.175-13.316-9.635-20.49-5.49c-7.175,4.142-9.633,13.315-5.491,20.49l24.1,41.744
			c2.778,4.813,7.82,7.503,13.005,7.503c2.544,0,5.124-0.648,7.485-2.013C391.175,473.561,393.633,464.388,389.491,457.213z"/>
	</g>
</g>
<g>
	<g>
		<path d="M96.531,146.611L54.789,122.51c-7.174-4.144-16.349-1.685-20.49,5.49c-4.142,7.174-1.684,16.348,5.49,20.49l41.742,24.101
			c2.362,1.364,4.941,2.013,7.486,2.013c5.184,0,10.226-2.69,13.004-7.503C106.163,159.927,103.705,150.753,96.531,146.611z"/>
	</g>
</g>
<g>
	<g>
		<path d="M472.213,363.51l-41.743-24.1c-7.177-4.145-16.349-1.684-20.491,5.49c-4.142,7.175-1.684,16.349,5.491,20.49l41.743,24.1
			c2.363,1.364,4.941,2.013,7.486,2.013c5.184,0,10.227-2.691,13.005-7.503C481.845,376.825,479.387,367.651,472.213,363.51z"/>
	</g>
</g>
<g>
	<g>
		<path d="M63.201,241H15c-8.284,0-15,6.716-15,15c0,8.284,6.716,15,15,15h48.201c8.284,0,15-6.716,15-15
			C78.201,247.716,71.485,241,63.201,241z"/>
	</g>
</g>
<g>
	<g>
		<path d="M497,241h-48.199c-8.284,0-15,6.716-15,15c0,8.284,6.716,15,15,15H497c8.284,0,15-6.716,15-15
			C512,247.716,505.284,241,497,241z"/>
	</g>
</g>
<g>
	<g>
		<path d="M102.022,344.9c-4.142-7.174-13.316-9.634-20.49-5.49l-41.744,24.1c-7.175,4.142-9.633,13.315-5.491,20.49
			c2.778,4.813,7.82,7.503,13.005,7.503c2.544,0,5.123-0.648,7.485-2.013l41.744-24.1
			C103.706,361.248,106.164,352.075,102.022,344.9z"/>
	</g>
</g>
<g>
	<g>
		<path d="M477.702,127.999c-4.142-7.174-13.315-9.635-20.49-5.49L415.47,146.61c-7.174,4.143-9.632,13.316-5.49,20.49
			c2.778,4.813,7.819,7.503,13.004,7.503c2.544,0,5.124-0.648,7.486-2.013l41.742-24.101
			C479.386,144.346,481.844,135.173,477.702,127.999z"/>
	</g>
</g>
<g>
	<g>
		<path d="M167.101,409.978c-7.176-4.145-16.349-1.685-20.491,5.49l-24.102,41.742c-4.142,7.174-1.685,16.348,5.49,20.49
			c2.362,1.364,4.941,2.013,7.486,2.013c5.184,0,10.226-2.691,13.004-7.503l24.101-41.742
			C176.733,423.295,174.275,414.121,167.101,409.978z"/>
	</g>
</g>
<g>
	<g>
		<path d="M383.999,34.297c-7.175-4.144-16.349-1.684-20.49,5.49L339.41,81.529c-4.142,7.175-1.684,16.349,5.491,20.49
			c2.362,1.364,4.94,2.013,7.485,2.013c5.184,0,10.227-2.691,13.005-7.503l24.099-41.742
			C393.632,47.612,391.174,38.438,383.999,34.297z"/>
	</g>
</g>
<g>
</g>
<g>
</g>
<g>
</g>
<g>
</g>
<g>
</g>
<g>
</g>
<g>
</g>
<g>
</g>
<g>
</g>
<g>
</g>
<g>
</g>
<g>
</g>
<g>
</g>
<g>
</g>
<g>
</g>
</svg>
